# xmcd CD database file
#
# Track frame offsets:
#	150
#	18181
#	32513
#	49725
#	68429
#	84364
#	108253
#	124682
#	142816
#
# Disc length: 2354 seconds
#
# Revision: 0
# Processed by: cddbd v1.5.2PL0 Copyright (c) Steve Scherf et al.
# Submitted via: CDex 1.70beta2
#
DISCID=60093009
DTITLE=CRISIX - FROM BLUE TO BLACK
DYEAR=2016
DGENRE=Thrash Metal
TTITLE0=CONSPIRANOIA
TTITLE1=JOURNEY THROUGH THE FIRE
TTITLE2=G.M.M. (THE GREAT METAL MOTHERFUCKER)
TTITLE3=T-TERROR ERA
TTITLE4=PSYCHO CRISIX WORLD
TTITLE5=FROM BLUE TO BLACK
TTITLE6=STRANGE
TTITLE7=FIVE AS ONE
TTITLE8=FALLEN
EXTD=YEAR: 2016
EXTT0=
EXTT1=
EXTT2=
EXTT3=
EXTT4=
EXTT5=
EXTT6=
EXTT7=
EXTT8=
PLAYORDER=
